<?xml version="1.0" standalone="no"?>
<!DOCTYPE svg PUBLIC "-//W3C//DTD SVG 20010904//EN"
 "http://www.w3.org/TR/2001/REC-SVG-20010904/DTD/svg10.dtd">
<svg version="1.0" xmlns="http://www.w3.org/2000/svg"
 width="553.000000pt" height="575.000000pt" viewBox="0 0 553.000000 575.000000"
 preserveAspectRatio="xMidYMid meet">
<metadata>
Created by potrace 1.16, written by Peter Selinger 2001-2019
</metadata>
<g transform="translate(0.000000,575.000000) scale(0.100000,-0.100000)"
fill="#000000" stroke="none">
<path d="M3299 4197 c7 -18 11 -162 11 -399 0 -330 -2 -373 -17 -399 -31 -52
-101 -58 -145 -12 -23 24 -23 26 -28 356 l-5 332 -717 3 -718 2 0 -1085 0
-1085 492 0 491 0 111 -59 c147 -78 308 -163 431 -227 l100 -52 3 -72 c4 -90
-20 -145 -80 -186 l-41 -29 -776 0 c-427 0 -789 4 -806 8 -22 6 101 -123 493
-515 l522 -523 173 2 c536 5 1049 182 1495 515 126 94 398 366 491 490 172
232 295 465 384 728 28 84 77 261 77 280 0 7 -420 432 -934 944 -1134 1130
-1020 1018 -1007 983z m-445 -701 c45 -19 61 -41 229 -326 167 -281 173 -290
193 -290 8 0 85 32 172 71 183 82 176 79 356 159 128 57 144 62 196 58 36 -3
67 -12 86 -25 31 -22 297 -454 350 -568 25 -55 28 -70 28 -180 1 -115 0 -123
-31 -188 -52 -110 -124 -172 -364 -314 -113 -67 -225 -131 -250 -142 -71 -32
-211 -47 -311 -33 -74 10 -103 21 -273 107 -311 155 -478 244 -501 266 -36 34
-67 116 -59 157 11 59 41 106 86 138 36 25 51 29 103 28 54 0 76 -8 199 -68
76 -38 140 -66 143 -63 3 3 -116 207 -263 453 -353 589 -333 553 -333 606 0
56 43 127 91 151 42 20 108 22 153 3z"/>
<path d="M2117 1673 c-4 -3 -7 -37 -7 -75 l0 -68 285 0 285 0 0 75 0 75 -278
0 c-153 0 -282 -3 -285 -7z"/>
</g>
</svg>
